<mxfile host="app.diagrams.net" modified="2022-12-05T16:20:58.433Z" agent="5.0 (Windows NT 10.0; Win64; x64) AppleWebKit/537.36 (KHTML, like Gecko) Chrome/108.0.0.0 Safari/537.36" etag="fZWq-kv_ocxokUoQIQ1Z" version="20.6.0" type="github">
  <diagram id="rQz2FHpG8r6NLyUr4xRN" name="Pagina-1">
    <mxGraphModel dx="1038" dy="539" grid="1" gridSize="10" guides="1" tooltips="1" connect="1" arrows="1" fold="1" page="1" pageScale="1" pageWidth="827" pageHeight="1169" math="0" shadow="0">
      <root>
        <mxCell id="0" />
        <mxCell id="1" parent="0" />
        <mxCell id="Zs46eBv8vk1W993-dL3z-2" value="" style="rounded=0;whiteSpace=wrap;html=1;fontFamily=Verdana;" parent="1" vertex="1">
          <mxGeometry x="344" y="415" width="140" height="170" as="geometry" />
        </mxCell>
        <mxCell id="Zs46eBv8vk1W993-dL3z-3" value="Crea elemento" style="ellipse;whiteSpace=wrap;html=1;fontFamily=Verdana;" parent="1" vertex="1">
          <mxGeometry x="354" y="455" width="120" height="50" as="geometry" />
        </mxCell>
        <mxCell id="Zs46eBv8vk1W993-dL3z-4" value="Rimuove elemento" style="ellipse;whiteSpace=wrap;html=1;fontFamily=Verdana;" parent="1" vertex="1">
          <mxGeometry x="354" y="515" width="120" height="50" as="geometry" />
        </mxCell>
        <mxCell id="Zs46eBv8vk1W993-dL3z-5" value="Ratatouille23" style="text;align=center;fontStyle=1;verticalAlign=middle;spacingLeft=3;spacingRight=3;strokeColor=none;rotatable=0;points=[[0,0.5],[1,0.5]];portConstraint=eastwest;fontFamily=Verdana;" parent="1" vertex="1">
          <mxGeometry x="374" y="415" width="80" height="26" as="geometry" />
        </mxCell>
      </root>
    </mxGraphModel>
  </diagram>
</mxfile>
